<?xml version="1.0" standalone="no"?>
<!DOCTYPE svg PUBLIC "-//W3C//DTD SVG 1.1//EN" "http://www.w3.org/Graphics/SVG/1.1/DTD/svg11.dtd" >
<svg xmlns="http://www.w3.org/2000/svg">
<metadata>
This is a custom SVG webfont generated by Font Squirrel.
Copyright   : Copyright c 2008 by Silas Dilworth All rights reserved FS090320
Designer    : Silas Dilworth
Foundry URL : httptypetrustcom
</metadata>
<defs>
<font id="HeroicCondensedBlack" horiz-adv-x="663" >
<font-face units-per-em="2048" ascent="1536" descent="-512" />
<missing-glyph horiz-adv-x="342" />
<glyph unicode=" "  horiz-adv-x="342" />
<glyph unicode="&#x09;" horiz-adv-x="342" />
<glyph unicode="&#xa0;" horiz-adv-x="342" />
<glyph unicode="!" horiz-adv-x="409" d="M61 1434h287l-53 -983h-180zM86 0v262h238v-262h-238z" />
<glyph unicode="&#x22;" horiz-adv-x="600" d="M51 1454h234l-47 -489h-140zM315 1454h234l-47 -489h-140z" />
<glyph unicode="#" horiz-adv-x="710" d="M61 598v125h103l16 295h-98v125h104l17 291h139l-16 -291h88l16 291h139l-16 -291h96v-125h-102l-17 -295h99v-125h-107l-14 -291h-139l14 291h-88l-14 -291h-140l15 291h-95zM303 723h88l17 295h-89z" />
<glyph unicode="$" horiz-adv-x="696" d="M82 459v106h233v-108q0 -41 33 -41t33 41v53q0 53 -31 94t-75 72t-88 66.5t-74.5 99t-30.5 149.5v27q0 225 205 250v166h129v-166q199 -27 198 -252v-82h-233v86q0 43 -33 43t-33 -41v-43q0 -63 47.5 -109.5t102.5 -75t102 -98t47 -174.5v-63q0 -221 -198 -248v-211h-129 v209q-111 12 -158 75.5t-47 174.5z" />
<glyph unicode="%" horiz-adv-x="878" d="M55 1071v174q0 104 41 156.5t141.5 52.5t141.5 -52t41 -157v-174q0 -104 -41 -155.5t-141.5 -51.5t-141.5 51.5t-41 155.5zM82 0l567 1434h148l-568 -1434h-147zM201 1069q0 -61 36.5 -61t36.5 61v178q0 63 -36.5 63.5t-36.5 -63.5v-178zM459 188v174q0 104 41 155.5 t141 51.5t141 -51t41 -156v-174q0 -104 -41 -156t-141 -52t-141 52t-41 156zM604 186q0 -63 37 -63t37 63v179q0 61 -37 61t-37 -61v-179z" />
<glyph unicode="&#x26;" horiz-adv-x="796" d="M82 248v317q0 102 82 164q-76 53 -76 164v289q0 131 61.5 201.5t221 70.5t221 -70.5t61.5 -201.5v-178h-243v178q0 45 -39 45t-39 -45v-310q0 -31 30 -30h373v-234h-82v-325q0 -45 37 -45h45v-238h-45q-92 0 -149 37q-53 -55 -172 -55q-287 0 -287 266zM332 254 q0 -45 37 -45t37 45v354h-44q-31 0 -30 -33v-321z" />
<glyph unicode="'" horiz-adv-x="335" d="M51 1454h234l-47 -489h-140z" />
<glyph unicode="(" horiz-adv-x="514" d="M82 715q0 391 188 780h183q-164 -391 -164 -780t164 -776h-183q-188 387 -188 776z" />
<glyph unicode=")" horiz-adv-x="514" d="M61 -61q164 387 164 776t-164 780h183q188 -389 188 -780q0 -389 -188 -776h-183z" />
<glyph unicode="*" horiz-adv-x="729" d="M61 1163l58 183l223 -150q-33 102 -74 258h193l-74 -258l223 150l58 -183q-47 -4 -144.5 -7t-124.5 -5l100.5 -77.5t110.5 -86.5l-155 -113l-90 250l-91 -250l-157 113l103 80l108 84q-27 2 -123.5 5t-143.5 7z" />
<glyph unicode="+" horiz-adv-x="757" d="M82 481v185h205v204h184v-204h205v-185h-205v-205h-184v205h-205z" />
<glyph unicode="," horiz-adv-x="393" d="M82 -180v442h250l-96 -442h-154z" />
<glyph unicode="-" horiz-adv-x="491" d="M72 481v185h348v-185h-348z" />
<glyph unicode="." horiz-adv-x="401" d="M82 0v262h237v-262h-237z" />
<glyph unicode="/" horiz-adv-x="569" d="M41 -61l299 1556h188l-299 -1556h-188z" />
<glyph unicode="0" horiz-adv-x="749" d="M82 256v920q0 279 293 278.5t293 -278.5v-920q0 -276 -293 -276t-293 276zM332 258q0 -51 43 -51t43 51v920q0 49 -43 49t-43 -49v-920z" />
<glyph unicode="1" horiz-adv-x="602" d="M51 0v238h125v880h-125v182q78 0 120 38t42 96h213v-1196h125v-238h-500z" />
<glyph unicode="2" horiz-adv-x="702" d="M61 1024v158q0 131 63.5 201.5t225.5 70.5q160 0 226.5 -71.5t66.5 -200.5v-152q0 -123 -32.5 -213t-81.5 -146l-95 -110q-47 -53 -79.5 -131t-32.5 -182v-10h329v-238h-581v225q0 143 33.5 248t80.5 163t94.5 108.5t81 120t33.5 161.5v156q0 45 -43 45t-43 -45v-158 h-246z" />
<glyph unicode="3" horiz-adv-x="735" d="M72 1024v158q0 131 63.5 201.5t225 70.5t225 -70.5t63.5 -201.5v-289q0 -111 -82 -164q86 -55 86 -164v-313q0 -129 -66.5 -200.5t-226.5 -71.5q-162 0 -225 70.5t-63 201.5v178h245v-174q0 -49 43 -49t43 47v321q0 33 -30 33h-101v234h101q31 0 30 30v310q0 45 -43 45 t-43 -45v-158h-245z" />
<glyph unicode="4" horiz-adv-x="700" d="M31 274v234l215 926h340v-938h84v-222h-84v-274h-246v274h-309zM238 496h102v229q0 68 12 416z" />
<glyph unicode="5" horiz-adv-x="724" d="M72 252v178h245v-174q0 -49 43 -49t43 47v391q0 35 -34 35q-45 0 -82 -41h-201l39 795h508v-238h-295l-16 -336q45 23 104 23q123 0 175 -54.5t52 -181.5v-395q0 -129 -66.5 -200.5t-226.5 -71.5q-162 0 -225 70.5t-63 201.5z" />
<glyph unicode="6" horiz-adv-x="749" d="M82 256v924q0 274 293 274t293 -274v-156h-250v158q0 45 -41 45q-45 0 -45 -45v-355q53 25 114 25q117 0 169.5 -62.5t52.5 -185.5v-348q0 -276 -293 -276t-293 276zM332 252q0 -45 43 -45t43 45v336q0 45 -43 45t-43 -45v-336z" />
<glyph unicode="7" horiz-adv-x="598" d="M31 1196v238h536v-201q-92 -354 -118.5 -567t-26.5 -666h-275q0 639 187 1196h-303z" />
<glyph unicode="8" horiz-adv-x="749" d="M82 252v313q0 109 86 164q-82 53 -82 164v289q0 131 63.5 201.5t225.5 70.5t225.5 -70.5t63.5 -201.5v-289q0 -111 -82 -164q86 -55 86 -164v-313q0 -129 -66.5 -200.5t-226.5 -71.5t-226.5 71.5t-66.5 200.5zM332 252q0 -45 43 -45t43 45v330q0 45 -43 45t-43 -45v-330z M332 870q0 -45 43 -45t43 45v312q0 45 -43 45t-43 -45v-312z" />
<glyph unicode="9" horiz-adv-x="749" d="M82 254v176h250v-178q0 -45 41 -45q45 0 45 45v369q-41 -18 -103 -19q-233 0 -233 248v328q0 276 293 276t293 -276v-924q0 -274 -293 -274t-293 274zM332 866q0 -45 43 -45t43 45v316q0 45 -43 45t-43 -45v-316z" />
<glyph unicode=":" horiz-adv-x="401" d="M82 0v262h237v-262h-237zM82 594v262h237v-262h-237z" />
<glyph unicode=";" horiz-adv-x="413" d="M82 -180v442h250l-96 -442h-154zM82 594v262h237v-262h-237z" />
<glyph unicode="&#x3c;" horiz-adv-x="620" d="M61 717l299 778h199l-299 -778l299 -778h-199z" />
<glyph unicode="=" horiz-adv-x="696" d="M82 326v184h532v-184h-532zM82 637v184h532v-184h-532z" />
<glyph unicode="&#x3e;" horiz-adv-x="620" d="M61 -61l299 778l-299 778h199l299 -778l-299 -778h-199z" />
<glyph unicode="?" horiz-adv-x="696" d="M61 1044v144q0 266 287 266t287 -266v-117q0 -94 -17.5 -153.5t-44.5 -92.5l-54 -69q-28 -37 -51.5 -113t-29.5 -192h-174q-18 94 -18 174q0 100 34.5 169.5t69.5 130t35 140.5v117q0 45 -37 45t-37 -45v-138h-250zM229 0v262h238v-262h-238z" />
<glyph unicode="@" horiz-adv-x="1077" d="M82 264v496q0 231 104.5 360t352 129t352 -129t104.5 -360v-496q0 -229 -103.5 -359t-352.5 -130q-252 0 -354.5 129t-102.5 360zM252 264q0 -156 60.5 -240.5t226.5 -84.5q164 0 225 85t61 240v496q0 156 -60 240.5t-226 84.5t-226.5 -85t-60.5 -240v-496zM330 264v127 q0 104 45 159.5t180 96.5v113q0 25 -20.5 24.5t-20.5 -24.5v-55h-176v55q0 199 199 198q113 0 156.5 -51t43.5 -149v-660h-108l-23 27q-37 -49 -102 -49q-90 0 -132 46t-42 142zM512 272q0 -29 23 -28q20 0 20 28v228q-43 -33 -43 -99v-129z" />
<glyph unicode="A" horiz-adv-x="714" d="M31 0l166 1434h321l166 -1434h-252l-20 279h-109l-20 -279h-252zM324 498h67l-8 194q-18 381 -23 459h-6q-2 -66 -10 -219.5t-12 -239.5z" />
<glyph unicode="B" horiz-adv-x="739" d="M82 0v1434h321q145 0 196.5 -53.5t51.5 -172.5v-313q0 -115 -82 -166q88 -53 88 -172v-309q0 -123 -52 -185.5t-189 -62.5h-334zM322 238h49q37 0 37 41v282q0 47 -46 47h-40v-370zM322 842h43q43 0 43 49v266q0 39 -39 39h-47v-354z" />
<glyph unicode="C" horiz-adv-x="747" d="M82 256v922q0 276 293 276q162 0 226.5 -72.5t64.5 -203.5v-224h-248v224q0 49 -43 49t-43 -49v-920q0 -51 43 -51t43 51v242h248v-244q0 -131 -64.5 -203.5t-226.5 -72.5q-293 0 -293 276z" />
<glyph unicode="D" horiz-adv-x="753" d="M82 0v1434h330q150 0 205 -61.5t55 -194.5v-922q0 -135 -54.5 -195.5t-199.5 -60.5h-336zM334 238h43q43 0 43 45v864q0 49 -47 49h-39v-958z" />
<glyph unicode="E" horiz-adv-x="626" d="M82 0v1434h473v-238h-221v-354h192v-234h-192v-370h221v-238h-473z" />
<glyph unicode="F" horiz-adv-x="587" d="M82 0v1434h455v-238h-203v-354h170v-234h-170v-608h-252z" />
<glyph unicode="G" horiz-adv-x="749" d="M82 256v922q0 276 293 276t293 -276v-209h-250v213q0 45 -43 45t-43 -45v-924q0 -51 43 -51t43 51v350h-43v234h293v-586q0 -276 -293 -276t-293 276z" />
<glyph unicode="H" horiz-adv-x="753" d="M82 0v1434h252v-592h86v592h252v-1434h-252v608h-86v-608h-252z" />
<glyph unicode="I" horiz-adv-x="436" d="M92 0v1434h252v-1434h-252z" />
<glyph unicode="J" horiz-adv-x="696" d="M41 256v223h246v-221q0 -51 39 -51t39 51v1176h249v-1178q0 -131 -63.5 -203.5t-223 -72.5t-223 72.5t-63.5 203.5z" />
<glyph unicode="K" horiz-adv-x="729" d="M82 0v1434h250v-592q16 84 51 301t49 291h275l-189 -711l201 -723h-273l-114 621v-621h-250z" />
<glyph unicode="L" horiz-adv-x="555" d="M82 0v1434h252v-1196h180v-238h-432z" />
<glyph unicode="M" horiz-adv-x="1024" d="M82 0v1434h319l111 -945l111 945h319v-1434h-231l30 991l-135 -991h-188l-135 1004l30 -1004h-231z" />
<glyph unicode="N" horiz-adv-x="784" d="M82 0v1434h231l172 -807q-10 184 -10 374v433h227v-1434h-229l-172 805q8 -139 8 -375v-430h-227z" />
<glyph unicode="O" horiz-adv-x="733" d="M72 256v920q0 279 295 278.5t295 -278.5v-920q0 -276 -295 -276t-295 276zM324 258q0 -51 43 -51t43 51v920q0 49 -43 49t-43 -49v-920z" />
<glyph unicode="P" horiz-adv-x="722" d="M82 0v1434h350q139 0 189.5 -62.5t50.5 -193.5v-361q0 -135 -53.5 -195.5t-192.5 -60.5h-92v-561h-252zM334 795h43q43 0 43 45v307q0 49 -47 49h-39v-401z" />
<glyph unicode="Q" horiz-adv-x="749" d="M82 256v920q0 279 293 278.5t293 -278.5v-920q0 -231 -199 -268q12 -43 68 -43h73l-37 -133h-69q-211 0 -230 178q-192 37 -192 266zM332 258q0 -51 43 -51t43 51v920q0 49 -43 49t-43 -49v-920z" />
<glyph unicode="R" horiz-adv-x="743" d="M82 0v1434h340q139 0 189.5 -62.5t50.5 -193.5v-361q0 -172 -97 -219l168 -598h-266l-139 578h-4v-578h-242zM324 795h43q43 0 43 45v307q0 49 -48 49h-38v-401z" />
<glyph unicode="S" horiz-adv-x="692" d="M61 1075v107q0 272 285 272t285 -272v-178h-242v176q0 47 -43 47t-43 -47v-103q0 -88 34 -146.5t82 -94t96 -80.5t82 -137.5t34 -229.5v-137q0 -272 -285 -272t-285 272v199h242v-195q0 -49 43 -49t43 49v129q0 104 -33.5 174t-82.5 110l-96 83q-48 43 -82 122.5 t-34 200.5z" />
<glyph unicode="T" horiz-adv-x="604" d="M31 1196v238h542v-238h-145v-1196h-252v1196h-145z" />
<glyph unicode="U" horiz-adv-x="749" d="M82 252v1182h250v-1180q0 -47 43 -47t43 47v1180h250v-1182q0 -129 -66.5 -200.5t-226.5 -71.5t-226.5 71.5t-66.5 200.5z" />
<glyph unicode="V" horiz-adv-x="696" d="M20 1434h263l32 -535l33 -522l33 522l33 535h262l-174 -1434h-309z" />
<glyph unicode="W" horiz-adv-x="1138" d="M41 1434h254l55 -988l90 988h258l90 -988l56 988h254l-158 -1434h-295l-76 1018l-75 -1018h-293z" />
<glyph unicode="X" horiz-adv-x="712" d="M20 0l189 745l-174 689h268l51 -420h4l52 420h268l-174 -689l188 -745h-268l-66 487h-4l-65 -487h-269z" />
<glyph unicode="Y" d="M20 1434h263l49 -555l49 555h262l-184 -928v-506h-252v506z" />
<glyph unicode="Z" horiz-adv-x="636" d="M61 1196v238h512v-160l-231 -1036h244v-238h-518v160l231 1036h-238z" />
<glyph unicode="[" horiz-adv-x="552" d="M123 -246v1741h348v-184h-141v-1372h141v-185h-348z" />
<glyph unicode="\" horiz-adv-x="569" d="M41 1495h188l299 -1556h-188z" />
<glyph unicode="]" horiz-adv-x="552" d="M82 -61h141v1372h-141v184h348v-1741h-348v185z" />
<glyph unicode="^" horiz-adv-x="483" d="M61 1024l95 410h170l96 -410h-150l-30 250l-31 -250h-150z" />
<glyph unicode="_" horiz-adv-x="716" d="M82 0v182h553v-182h-553z" />
<glyph unicode="`" horiz-adv-x="444" d="M82 1403h219l41 -277h-139z" />
<glyph unicode="a" d="M51 236v120q0 113 69.5 178.5t233.5 124.5v138q0 39 -32.5 39t-32.5 -39v-90h-226v94q0 244 263 243q266 0 266 -251v-793h-139l-31 41q-55 -61 -152 -61q-115 0 -167 62.5t-52 193.5zM289 236q0 -47 32.5 -47.5t32.5 47.5v247q-66 -45 -65 -116v-131z" />
<glyph unicode="b" horiz-adv-x="694" d="M82 0v1454h237v-438q57 29 101 28q115 0 159 -57t44 -190v-566q0 -133 -48.5 -192t-162.5 -59q-104 0 -158 63l-33 -43h-139zM319 229q0 -41 33 -41t33 41v564q0 43 -33 43t-33 -39v-568z" />
<glyph unicode="c" horiz-adv-x="667" d="M72 236v555q0 123 61.5 188t208.5 65q145 0 204.5 -65.5t59.5 -187.5v-125h-231v129q0 41 -33 41t-33 -41v-566q0 -41 33 -41t33 41v150h231v-143q0 -125 -57 -190.5t-207 -65.5q-152 0 -211 65.5t-59 190.5z" />
<glyph unicode="d" horiz-adv-x="694" d="M72 231v566q0 133 44 190t158 57q43 0 101 -28v438h237v-1454h-139l-33 43q-53 -63 -157 -63q-115 0 -163 59t-48 192zM309 229q0 -41 33 -41t33 41v568q0 39 -33 39t-33 -43v-564z" />
<glyph unicode="e" horiz-adv-x="677" d="M72 240v546q0 123 61.5 190.5t208.5 67.5q145 0 204.5 -67.5t59.5 -190.5v-319h-297v-238q0 -41 33 -41t33 41v150h231v-139q0 -125 -57 -192.5t-207 -67.5q-152 0 -211 67.5t-59 192.5zM309 645h66v150q0 41 -33 41t-33 -41v-150z" />
<glyph unicode="f" horiz-adv-x="522" d="M31 817v207h90v186q0 133 61.5 199t214.5 66q55 0 105 -17v-211q-43 18 -96 19q-47 0 -48 -56v-186h125v-207h-125v-817h-237v817h-90z" />
<glyph unicode="g" horiz-adv-x="667" d="M41 -109q0 127 98 195q-47 31 -47 84q0 59 53 88q-88 61 -88 201v329q0 123 61.5 189.5t209.5 66.5q35 0 88 -8q47 121 159 121q41 0 72 -10v-174q-49 16 -90 16q-16 0 -29 -6q70 -59 70 -195v-329q0 -121 -61.5 -181.5t-208.5 -60.5q-59 0 -60 -45q0 -47 60 -47 q160 0 224 -59.5t64 -180.5q0 -233 -286 -233q-289 -1 -289 239zM268 -84q0 -63 62 -63q59 0 59 67q0 57 -59 57q-62 0 -62 -61zM295 436q0 -47 32.5 -47t32.5 47v355q0 45 -32.5 45t-32.5 -45v-355z" />
<glyph unicode="h" horiz-adv-x="694" d="M82 0v1454h237v-440q43 31 101 30q115 0 159 -58t44 -191v-795h-238v793q0 43 -33 43t-33 -41v-795h-237z" />
<glyph unicode="i" horiz-adv-x="401" d="M82 0v1024h237v-1024h-237zM82 1124v262h237v-262h-237z" />
<glyph unicode="j" horiz-adv-x="405" d="M-61 -111q51 -23 100 -22q47 0 47 55v1102h238v-1108q0 -133 -61.5 -198.5t-215.5 -65.5q-59 0 -108 20v217zM86 1124v262h238v-262h-238z" />
<glyph unicode="k" horiz-adv-x="679" d="M82 0v1454h237v-790l80 360h260l-165 -498l186 -526h-262l-99 393v-393h-237z" />
<glyph unicode="l" horiz-adv-x="401" d="M82 0v1454h237v-1454h-237z" />
<glyph unicode="m" horiz-adv-x="997" d="M82 0v1024h139l35 -43q63 63 160 63q86 0 145 -59q68 59 154 59q115 0 163 -59t48 -192v-793h-238v795q0 41 -32.5 41t-32.5 -41v-795h-238v797q0 39 -33 39t-33 -39v-797h-237z" />
<glyph unicode="n" horiz-adv-x="694" d="M82 0v1024h139l35 -43q63 63 164 63q113 0 158 -59t45 -192v-793h-238v795q0 41 -33 41t-33 -41v-795h-237z" />
<glyph unicode="o" d="M61 236v555q0 123 61.5 188t209 65t209 -65.5t61.5 -187.5v-555q0 -125 -59.5 -190.5t-211 -65.5t-211 65.5t-59.5 190.5zM299 229q0 -41 33 -41t33 41v566q0 41 -33 41t-33 -41v-566z" />
<glyph unicode="p" horiz-adv-x="694" d="M82 -328v1352h139l33 -43q53 63 158 63q115 0 163 -59t48 -192v-566q0 -133 -44 -190t-159 -57q-43 0 -101 28v-336h-237zM319 227q0 -39 33 -39t33 43v564q0 41 -33 41t-33 -41v-568z" />
<glyph unicode="q" horiz-adv-x="694" d="M72 793q0 133 48 192t163 59q104 0 157 -63l33 43h139v-1352h-237v336q-57 -29 -101 -28q-115 0 -158.5 57t-43.5 190v566zM309 231q0 -43 33 -43t33 39v568q0 41 -33 41t-33 -41v-564z" />
<glyph unicode="r" horiz-adv-x="503" d="M82 0v1024h139l29 -41q76 76 213 76v-252q-33 4 -43 4q-100 0 -101 -104v-707h-237z" />
<glyph unicode="s" horiz-adv-x="634" d="M51 231v107h234v-109q0 -41 32.5 -41t32.5 41v54q0 53 -30.5 94t-74.5 71.5t-88 66.5t-75 99.5t-31 149.5v27q0 125 62.5 189t203.5 64q143 0 205 -65.5t62 -190.5v-81h-234v86q0 43 -32.5 43t-32.5 -41v-43q0 -63 47 -109.5t102 -75t102.5 -98.5t47.5 -174v-64 q0 -125 -61.5 -188t-207.5 -63q-143 0 -203.5 63t-60.5 188z" />
<glyph unicode="t" horiz-adv-x="550" d="M31 815v209h104v258l238 64v-322h137v-209h-137v-582q0 -45 43 -45q41 0 94 19v-201q-49 -27 -111 -26q-152 0 -208 62t-56 191v582h-104z" />
<glyph unicode="u" horiz-adv-x="704" d="M82 231v793h237v-795q0 -41 33 -41t33 41v795h238v-1024h-140l-30 39q-49 -59 -160 -59q-115 0 -163 59t-48 192z" />
<glyph unicode="v" horiz-adv-x="638" d="M20 1024h246l53 -715l54 715h245l-167 -1024h-263z" />
<glyph unicode="w" horiz-adv-x="999" d="M20 1024h240l47 -688l84 688h217l84 -692l47 692h240l-143 -1024h-267l-67 684h-4l-68 -684h-266z" />
<glyph unicode="x" horiz-adv-x="649" d="M10 0l193 516l-187 508h252l56 -258q12 45 29.5 135t25.5 123h254l-191 -508l197 -516h-256l-59 272l-60 -272h-254z" />
<glyph unicode="y" horiz-adv-x="638" d="M20 1024h248l51 -575h5l47 575h247l-188 -1096q-27 -152 -92.5 -214t-204.5 -62q-63 0 -108 22v211q59 -23 106 -22q53 0 68 67l12 68z" />
<glyph unicode="z" horiz-adv-x="544" d="M41 0v158l203 645h-199v221h453v-158l-197 -645h203v-221h-463z" />
<glyph unicode="{" horiz-adv-x="569" d="M82 532v185h86q74 0 74 59q0 115 -52.5 262.5t-52.5 247.5q0 111 69.5 160t209.5 49h71v-184h-69q-39 0 -53.5 -15.5t-14.5 -56.5q0 -68 34 -213t34 -238q0 -115 -64 -163q63 -49 64 -164q0 -94 -34 -239.5t-34 -211.5q0 -41 14.5 -56t53.5 -15h69v-185h-71 q-139 0 -209 49.5t-70 159.5q0 100 52.5 247.5t52.5 262.5q0 59 -74 59h-86z" />
<glyph unicode="|" horiz-adv-x="434" d="M123 -246v1741h188v-1741h-188z" />
<glyph unicode="}" horiz-adv-x="569" d="M82 -61h70q39 0 53 15t14 56q0 66 -33.5 211.5t-33.5 239.5q0 115 63 164q-63 49 -63 163q0 92 33.5 237.5t33.5 213.5q0 41 -14.5 56.5t-52.5 15.5h-70v184h72q139 0 208.5 -49t69.5 -160q0 -100 -52 -247.5t-52 -262.5q0 -59 73 -59h86v-185h-86q-74 0 -73 -59 q0 -115 52 -262.5t52 -247.5q0 -111 -69.5 -160t-208.5 -49h-72v185z" />
<glyph unicode="~" horiz-adv-x="610" d="M61 1253q0 119 27 166t109 47q61 0 114.5 -35.5t77.5 -35.5q31 0 31 51h129q0 -119 -26.5 -166t-108.5 -47q-61 0 -116.5 36t-76.5 36q-31 0 -31 -52h-129z" />
<glyph unicode="&#xa1;" horiz-adv-x="409" d="M61 -410l54 983h180l53 -983h-287zM86 762v262h238v-262h-238z" />
<glyph unicode="&#xa2;" horiz-adv-x="698" d="M82 461v555q0 221 201 248v170h129v-168q113 -12 158.5 -77t45.5 -173v-127h-231v131q0 41 -33 41t-33 -41v-565q0 -41 33 -41t33 41v151h231v-145q0 -113 -45 -177.5t-159 -76.5v-207h-129v209q-111 14 -156 77.5t-45 174.5z" />
<glyph unicode="&#xa3;" horiz-adv-x="811" d="M82 651v148h76v385q0 270 288 270q145 0 214 -72.5t69 -197.5v-154h-244v154q0 43 -38.5 43t-38.5 -43v-385h139v-148h-139v-366q0 -47 51 -47h270v-238h-278q-115 0 -175 61q-59 -61 -190 -61v238q72 0 72 47v366h-76z" />
<glyph unicode="&#xa4;" horiz-adv-x="765" d="M82 0l84 328q-53 59 -53 186v453q0 123 55 180l-76 287h221l47 -213h43l50 213h221l-76 -287q55 -61 55 -180v-453q0 -125 -55 -186l86 -328h-221l-57 256h-48l-55 -256h-221zM350 508q0 -41 33 -41t33 41v463q0 41 -33 41t-33 -41v-463z" />
<glyph unicode="&#xa5;" horiz-adv-x="727" d="M61 1434h246l55 -568l56 568h248l-179 -883h123v-111h-123v-100h123v-111h-123v-229h-249v229h-119v111h119v100h-119v111h119z" />
<glyph unicode="&#xa6;" horiz-adv-x="434" d="M123 -246v774h188v-774h-188zM123 721v774h188v-774h-188z" />
<glyph unicode="&#xa7;" horiz-adv-x="733" d="M82 645q0 129 86 209q-86 102 -86 264v58q0 279 284.5 278.5t284.5 -278.5v-111h-250v119q0 43 -34.5 43t-34.5 -43v-70q0 -68 23.5 -110.5t59.5 -61t76.5 -44.5t76.5 -56.5t59.5 -103t23.5 -181.5v-96q0 -131 -84 -209q84 -100 84 -264v-58q0 -279 -284.5 -278.5 t-284.5 278.5v111h250v-119q0 -43 34.5 -43t34.5 43v70q0 80 -32.5 124t-79.5 66.5t-94.5 53t-80 107.5t-32.5 206v96zM332 563q0 -131 57 -182q12 27 12 76v80q0 125 -57 182q-12 -35 -12 -76v-80z" />
<glyph unicode="&#xa8;" horiz-adv-x="610" d="M82 1120v238h192v-238h-192zM336 1120v238h192v-238h-192z" />
<glyph unicode="&#xa9;" horiz-adv-x="1077" d="M82 469v496q0 231 104.5 360t352 129t352 -129t104.5 -360v-496q0 -229 -103.5 -359t-352.5 -130q-252 0 -354.5 129t-102.5 360zM252 469q0 -156 60.5 -241t226.5 -85q164 0 225 85t61 241v496q0 156 -60 240.5t-226 84.5t-226.5 -85t-60.5 -240v-496zM342 479v475 q0 98 44 151.5t157 53.5q111 0 153.5 -52t42.5 -151v-112h-174v127q0 27 -22.5 26.5t-22.5 -26.5v-508q0 -27 22.5 -27t22.5 29v147h174v-135q0 -98 -43 -150.5t-153 -52.5q-113 0 -157 53.5t-44 151.5z" />
<glyph unicode="&#xaa;" horiz-adv-x="567" d="M82 762v141q0 102 45 153.5t180 94.5v106q0 27 -22.5 27t-22.5 -27v-73h-178v73q0 197 201 197q111 0 155.5 -51t44.5 -148v-661h-102l-23 22q-41 -45 -106 -45q-172 1 -172 191zM98 365v149h387v-149h-387zM260 766q0 -31 25 -31q23 0 22 31v235q-47 -33 -47 -98v-137z " />
<glyph unicode="&#xab;" horiz-adv-x="833" d="M61 512l187 379h223l-180 -379l180 -379h-223zM362 512l187 379h223l-180 -379l180 -379h-223z" />
<glyph unicode="&#xac;" horiz-adv-x="696" d="M82 575v185h532v-373h-182v188h-350z" />
<glyph unicode="&#xad;" horiz-adv-x="491" d="M72 481v185h348v-185h-348z" />
<glyph unicode="&#xae;" horiz-adv-x="1077" d="M82 469v496q0 231 104.5 360t352 129t352 -129t104.5 -360v-496q0 -229 -103.5 -359t-352.5 -130q-252 0 -354.5 129t-102.5 360zM252 469q0 -156 60.5 -241t226.5 -85q164 0 225 85t61 241v496q0 156 -60 240.5t-226 84.5t-226.5 -85t-60.5 -240v-496zM346 289v860h201 q102 0 139 -47t37 -139v-189q0 -68 -12.5 -98.5t-48.5 -44.5l108 -342h-166l-98 338v-338h-160zM506 760h35q18 0 18 20v176q0 23 -18 23h-35v-219z" />
<glyph unicode="&#xaf;" horiz-adv-x="552" d="M102 1120v176h349v-176h-349z" />
<glyph unicode="&#xb0;" horiz-adv-x="565" d="M82 1222.5q0 112.5 43 172t157.5 59.5t157.5 -59.5t43 -172t-43 -172t-157.5 -59.5t-157.5 59.5t-43 172zM231 1223q0 -90 51.5 -90t51.5 90t-51.5 90t-51.5 -90z" />
<glyph unicode="&#xb1;" horiz-adv-x="757" d="M82 154v186h594v-186h-594zM82 600v184h205v205h184v-205h205v-184h-205v-205h-184v205h-205z" />
<glyph unicode="&#xb2;" horiz-adv-x="702" d="M61 1024v158q0 131 63.5 201.5t225.5 70.5q160 0 226.5 -71.5t66.5 -200.5v-152q0 -123 -32.5 -213t-81.5 -146l-95 -110q-47 -53 -79.5 -131t-32.5 -182v-10h329v-238h-581v225q0 143 33.5 248t80.5 163t94.5 108.5t81 120t33.5 161.5v156q0 45 -43 45t-43 -45v-158 h-246z" />
<glyph unicode="&#xb3;" horiz-adv-x="735" d="M72 252v178h245v-174q0 -49 43 -49t43 47v321q0 33 -30 33h-101v234h101q31 0 30 30v310q0 45 -43 45t-43 -45v-158h-245v158q0 131 63.5 201.5t225 70.5t225 -70.5t63.5 -201.5v-289q0 -111 -82 -164q86 -55 86 -164v-313q0 -129 -66.5 -200.5t-226.5 -71.5 q-162 0 -225 70.5t-63 201.5z" />
<glyph unicode="&#xb4;" horiz-adv-x="444" d="M102 1126l41 277h219l-120 -277h-140z" />
<glyph unicode="&#xb5;" horiz-adv-x="704" d="M82 -328v1352h237v-795q0 -41 33 -41t33 43v793h238v-795q0 -133 -44 -191t-159 -58q-57 0 -101 30v-338h-237z" />
<glyph unicode="&#x3bc;" horiz-adv-x="704" d="M82 -328v1352h237v-795q0 -41 33 -41t33 43v793h238v-795q0 -133 -44 -191t-159 -58q-57 0 -101 30v-338h-237z" />
<glyph unicode="&#xb6;" horiz-adv-x="790" d="M61 633v553q0 121 53.5 184.5t192.5 63.5h381v-1762h-252v717h-125q-139 0 -194.5 62.5t-55.5 181.5z" />
<glyph unicode="&#xb7;" horiz-adv-x="401" d="M82 442v263h237v-263h-237z" />
<glyph unicode="&#xb8;" horiz-adv-x="501" d="M92 -348l33 125h70q29 0 28.5 28.5t-28.5 28.5h-52l47 166h125l-20 -80q111 -23 111 -127q0 -68 -41 -104.5t-148 -36.5h-125z" />
<glyph unicode="&#xb9;" horiz-adv-x="602" d="M51 0v238h125v880h-125v182q78 0 120 38t42 96h213v-1196h125v-238h-500z" />
<glyph unicode="&#xba;" horiz-adv-x="565" d="M82 770v487q0 197 200.5 197t200.5 -199v-487q0 -197 -200.5 -197t-200.5 199zM90 365v149h385v-149h-385zM260 768q0 -27 22.5 -27t22.5 27v489q0 27 -22.5 27t-22.5 -27v-489z" />
<glyph unicode="&#xbb;" horiz-adv-x="833" d="M61 133l181 379l-181 379h224l186 -379l-186 -379h-224zM362 133l181 379l-181 379h224l186 -379l-186 -379h-224z" />
<glyph unicode="&#xbc;" horiz-adv-x="442" d="M82 115v98l90 389h143v-393h35v-94h-35v-115h-102v115h-131zM84 670v92h276v-92h-276zM119 831v101h51v368h-49v78q66 0 65 56h90v-502h52v-101h-209zM170 209h43v96q0 27 4 174z" />
<glyph unicode="&#xbd;" horiz-adv-x="440" d="M82 670v92h276v-92h-276zM102 430v66q0 55 27 84.5t94 29.5q123 0 123 -114v-64q0 -78 -33.5 -127t-67.5 -92t-34 -109v-4h137v-100h-244v94q0 74 21.5 124t47.5 72.5t47.5 57.5t21.5 82v66q0 18 -18.5 18t-18.5 -18v-66h-103zM117 831v101h51v368h-49v78q66 0 65 56h90 v-502h52v-101h-209z" />
<glyph unicode="&#xbe;" horiz-adv-x="442" d="M82 115v98l90 389h143v-393h35v-94h-35v-115h-102v115h-131zM84 670v92h276v-92h-276zM102 938v74h105v-74q0 -20 18 -20q16 0 17 20v135q0 14 -13 14h-41v99h41q12 0 13 12v129q0 20 -17 21q-18 0 -18 -21v-65h-105v65q0 115 123 115q68 0 94.5 -30t26.5 -85v-121 q0 -47 -35 -67q37 -27 37 -70v-131q0 -115 -123 -115t-123 115zM170 209h43v96q0 27 4 174z" />
<glyph unicode="&#xbf;" horiz-adv-x="696" d="M61 -47q0 94 17.5 153.5t44.5 92.5l54 69q28 37 51.5 113t29.5 192h174q18 -94 19 -174q0 -100 -35 -169.5t-70 -130t-35 -140.5v-117q0 -45 37 -45t37 45v138h250v-144q0 -266 -287 -266t-287 266v117zM229 762v262h238v-262h-238z" />
<glyph unicode="&#xc0;" horiz-adv-x="714" d="M31 0l166 1434h321l166 -1434h-252l-20 279h-109l-20 -279h-252zM168 1792h219l41 -276h-139zM324 498h67l-8 194q-18 381 -23 459h-6q-2 -66 -10 -219.5t-12 -239.5z" />
<glyph unicode="&#xc1;" horiz-adv-x="714" d="M31 0l166 1434h321l166 -1434h-252l-20 279h-109l-20 -279h-252zM285 1516l41 276h219l-121 -276h-139zM324 498h67l-8 194q-18 381 -23 459h-6q-2 -66 -10 -219.5t-12 -239.5z" />
<glyph unicode="&#xc2;" horiz-adv-x="714" d="M31 0l166 1434h321l166 -1434h-252l-20 279h-109l-20 -279h-252zM141 1516l111 276h209l112 -276h-167l-50 100l-49 -100h-166zM324 498h67l-8 194q-18 381 -23 459h-6q-2 -66 -10 -219.5t-12 -239.5z" />
<glyph unicode="&#xc3;" horiz-adv-x="714" d="M31 0l166 1434h321l166 -1434h-252l-20 279h-109l-20 -279h-252zM109 1518q0 121 30.5 177t110.5 56q51 0 104.5 -31.5t77.5 -31.5q31 0 31 45h141q0 -121 -31.5 -177.5t-109.5 -56.5q-55 0 -107.5 32t-74.5 32q-31 0 -31 -45h-141zM324 498h67l-8 194q-18 381 -23 459 h-6q-2 -66 -10 -219.5t-12 -239.5z" />
<glyph unicode="&#xc4;" horiz-adv-x="714" d="M31 0l166 1434h321l166 -1434h-252l-20 279h-109l-20 -279h-252zM133 1516v237h193v-237h-193zM324 498h67l-8 194q-18 381 -23 459h-6q-2 -66 -10 -219.5t-12 -239.5zM387 1516v237h193v-237h-193z" />
<glyph unicode="&#xc5;" horiz-adv-x="714" d="M31 0l166 1434h321l166 -1434h-252l-20 279h-109l-20 -279h-252zM190 1659q0 174 166 174q168 0 168 -174q0 -172 -168 -172q-166 0 -166 172zM324 498h67l-8 194q-18 381 -23 459h-6q-2 -66 -10 -219.5t-12 -239.5zM324 1659q0 -47 32 -47q35 0 35 47q0 49 -35 49 q-32 0 -32 -49z" />
<glyph unicode="&#xc6;" horiz-adv-x="1005" d="M31 0l293 1434h620v-238h-225v-354h196v-234h-196v-370h225v-238h-475v264h-131l-47 -264h-260zM381 498h88v602l-35 -248q-10 -59 -26.5 -175t-26.5 -179z" />
<glyph unicode="&#xc7;" horiz-adv-x="737" d="M82 256v922q0 276 293 276q162 0 226.5 -72.5t64.5 -203.5v-224h-248v224q0 49 -43 49t-43 -49v-920q0 -51 43 -51t43 51v242h248v-244q0 -252 -238 -274l-14 -62q111 -23 110 -127q0 -68 -41 -104.5t-147 -36.5h-125l33 125h69q29 0 29 28.5t-29 28.5h-51l41 150 q-221 28 -221 272z" />
<glyph unicode="&#xc8;" horiz-adv-x="626" d="M82 0v1434h473v-238h-221v-354h192v-234h-192v-370h221v-238h-473zM139 1792h219l41 -276h-139z" />
<glyph unicode="&#xc9;" horiz-adv-x="626" d="M82 0v1434h473v-238h-221v-354h192v-234h-192v-370h221v-238h-473zM244 1516l41 276h219l-121 -276h-139z" />
<glyph unicode="&#xca;" horiz-adv-x="626" d="M82 0v1434h473v-238h-221v-354h192v-234h-192v-370h221v-238h-473zM96 1516l111 276h209l112 -276h-168l-49 100l-49 -100h-166z" />
<glyph unicode="&#xcb;" horiz-adv-x="626" d="M82 0v1434h473v-238h-221v-354h192v-234h-192v-370h221v-238h-473zM90 1516v237h193v-237h-193zM344 1516v237h193v-237h-193z" />
<glyph unicode="&#xcc;" horiz-adv-x="436" d="M33 1792h219l41 -276h-139zM92 0v1434h252v-1434h-252z" />
<glyph unicode="&#xcd;" horiz-adv-x="436" d="M92 0v1434h252v-1434h-252zM154 1516l41 276h219l-121 -276h-139z" />
<glyph unicode="&#xce;" horiz-adv-x="436" d="M2 1516l111 276h209l112 -276h-168l-49 100l-49 -100h-166zM92 0v1434h252v-1434h-252z" />
<glyph unicode="&#xcf;" horiz-adv-x="436" d="M-4 1516v237h192v-237h-192zM92 0v1434h252v-1434h-252zM250 1516v237h192v-237h-192z" />
<glyph unicode="&#xd0;" horiz-adv-x="753" d="M37 637v176h45v621h330q150 0 205 -61.5t55 -194.5v-922q0 -135 -54.5 -195.5t-199.5 -60.5h-336v637h-45zM334 238h43q43 0 43 45v864q0 49 -47 49h-39v-383h43v-176h-43v-399z" />
<glyph unicode="&#xd1;" horiz-adv-x="784" d="M82 0v1434h231l172 -807q-10 184 -10 374v433h227v-1434h-229l-172 805q8 -139 8 -375v-430h-227zM143 1518q0 121 31 177t111 56q51 0 104 -31.5t78 -31.5q31 0 31 45h141q0 -121 -32 -177.5t-109 -56.5q-55 0 -107.5 32t-75.5 32q-31 0 -30 -45h-142z" />
<glyph unicode="&#xd2;" horiz-adv-x="733" d="M72 256v920q0 279 295 278.5t295 -278.5v-920q0 -276 -295 -276t-295 276zM180 1792h219l41 -276h-139zM324 258q0 -51 43 -51t43 51v920q0 49 -43 49t-43 -49v-920z" />
<glyph unicode="&#xd3;" horiz-adv-x="733" d="M72 256v920q0 279 295 278.5t295 -278.5v-920q0 -276 -295 -276t-295 276zM299 1516l41 276h219l-121 -276h-139zM324 258q0 -51 43 -51t43 51v920q0 49 -43 49t-43 -49v-920z" />
<glyph unicode="&#xd4;" horiz-adv-x="733" d="M72 256v920q0 279 295 278.5t295 -278.5v-920q0 -276 -295 -276t-295 276zM150 1516l110 276h209l113 -276h-168l-49 100l-50 -100h-165zM324 258q0 -51 43 -51t43 51v920q0 49 -43 49t-43 -49v-920z" />
<glyph unicode="&#xd5;" horiz-adv-x="733" d="M72 256v920q0 279 295 278.5t295 -278.5v-920q0 -276 -295 -276t-295 276zM119 1518q0 121 30.5 177t110.5 56q51 0 104.5 -31.5t77.5 -31.5q31 0 31 45h141q0 -121 -31.5 -177.5t-109.5 -56.5q-55 0 -107.5 32t-74.5 32q-31 0 -31 -45h-141zM324 258q0 -51 43 -51t43 51 v920q0 49 -43 49t-43 -49v-920z" />
<glyph unicode="&#xd6;" horiz-adv-x="733" d="M72 256v920q0 279 295 278.5t295 -278.5v-920q0 -276 -295 -276t-295 276zM143 1516v237h193v-237h-193zM324 258q0 -51 43 -51t43 51v920q0 49 -43 49t-43 -49v-920zM397 1516v237h193v-237h-193z" />
<glyph unicode="&#xd7;" horiz-adv-x="753" d="M82 408l164 165l-164 166l129 129l166 -163l166 163l129 -129l-164 -166l164 -165l-129 -129l-166 163l-166 -163z" />
<glyph unicode="&#xd8;" horiz-adv-x="733" d="M72 256v920q0 279 295 278q23 0 55 -4l10 45h189l-25 -119q66 -68 66 -200v-920q0 -276 -295 -276q-20 0 -58 4l-8 -45h-188l24 116q-65 68 -65 201zM324 258q0 -51 43 -51t43 51v920q0 49 -43 49t-43 -49v-920z" />
<glyph unicode="&#xd9;" horiz-adv-x="749" d="M82 252v1182h250v-1180q0 -47 43 -47t43 47v1180h250v-1182q0 -129 -66.5 -200.5t-226.5 -71.5t-226.5 71.5t-66.5 200.5zM188 1792h220l41 -276h-140z" />
<glyph unicode="&#xda;" horiz-adv-x="749" d="M82 252v1182h250v-1180q0 -47 43 -47t43 47v1180h250v-1182q0 -129 -66.5 -200.5t-226.5 -71.5t-226.5 71.5t-66.5 200.5zM303 1516l41 276h219l-121 -276h-139z" />
<glyph unicode="&#xdb;" horiz-adv-x="749" d="M82 252v1182h250v-1180q0 -47 43 -47t43 47v1180h250v-1182q0 -129 -66.5 -200.5t-226.5 -71.5t-226.5 71.5t-66.5 200.5zM158 1516l110 276h209l113 -276h-168l-49 100l-49 -100h-166z" />
<glyph unicode="&#xdc;" horiz-adv-x="749" d="M82 252v1182h250v-1180q0 -47 43 -47t43 47v1180h250v-1182q0 -129 -66.5 -200.5t-226.5 -71.5t-226.5 71.5t-66.5 200.5zM152 1516v237h192v-237h-192zM406 1516v237h192v-237h-192z" />
<glyph unicode="&#xdd;" d="M20 1434l187 -928v-506h252v506l184 928h-262l-49 -555l-49 555h-263zM270 1516l41 276h219l-120 -276h-140z" />
<glyph unicode="&#xde;" horiz-adv-x="714" d="M82 0v1434h250v-275h78q147 0 200.5 -64.5t53.5 -193.5v-352q0 -133 -56.5 -194.5t-204.5 -61.5h-71v-293h-250zM332 526h57q29 0 29 31v330q0 35 -33 35h-53v-396z" />
<glyph unicode="&#xdf;" horiz-adv-x="690" d="M68 0v1198q0 133 58 205t218 72t218.5 -72t58.5 -205v-215q0 -115 -80 -164q92 -49 92 -164v-403q0 -143 -55.5 -207.5t-215.5 -64.5h-14v223q29 0 38 10t9 41v412q0 33 -30 32h-21v234h12q31 0 31 31v239q0 45 -43 45t-43 -45v-1202h-233z" />
<glyph unicode="&#xe0;" d="M51 236v120q0 113 69.5 178.5t233.5 124.5v138q0 39 -32.5 39t-32.5 -39v-90h-226v94q0 244 263 243q266 0 266 -251v-793h-139l-31 41q-55 -61 -152 -61q-115 0 -167 62.5t-52 193.5zM164 1403h219l41 -277h-139zM289 236q0 -47 32.5 -47.5t32.5 47.5v247 q-66 -45 -65 -116v-131z" />
<glyph unicode="&#xe1;" d="M51 236v120q0 113 69.5 178.5t233.5 124.5v138q0 39 -32.5 39t-32.5 -39v-90h-226v94q0 244 263 243q266 0 266 -251v-793h-139l-31 41q-55 -61 -152 -61q-115 0 -167 62.5t-52 193.5zM242 1126l41 277h219l-121 -277h-139zM289 236q0 -47 32.5 -47.5t32.5 47.5v247 q-66 -45 -65 -116v-131z" />
<glyph unicode="&#xe2;" d="M51 236v120q0 113 69.5 178.5t233.5 124.5v138q0 39 -32.5 39t-32.5 -39v-90h-226v94q0 244 263 243q266 0 266 -251v-793h-139l-31 41q-55 -61 -152 -61q-115 0 -167 62.5t-52 193.5zM115 1120l110 277h209l113 -277h-168l-49 101l-49 -101h-166zM289 236 q0 -47 32.5 -47.5t32.5 47.5v247q-66 -45 -65 -116v-131z" />
<glyph unicode="&#xe3;" d="M51 236v120q0 113 69.5 178.5t233.5 124.5v138q0 39 -32.5 39t-32.5 -39v-90h-226v94q0 244 263 243q266 0 266 -251v-793h-139l-31 41q-55 -61 -152 -61q-115 0 -167 62.5t-52 193.5zM84 1128q0 121 30.5 177.5t110.5 56.5q51 0 104.5 -32t78.5 -32q31 0 30 45h142 q0 -121 -32 -177t-110 -56q-55 0 -107 32t-75 32q-31 0 -31 -46h-141zM289 236q0 -47 32.5 -47.5t32.5 47.5v247q-66 -45 -65 -116v-131z" />
<glyph unicode="&#xe4;" d="M51 236v120q0 113 69.5 178.5t233.5 124.5v138q0 39 -32.5 39t-32.5 -39v-90h-226v94q0 244 263 243q266 0 266 -251v-793h-139l-31 41q-55 -61 -152 -61q-115 0 -167 62.5t-52 193.5zM109 1120v238h192v-238h-192zM289 236q0 -47 32.5 -47.5t32.5 47.5v247 q-66 -45 -65 -116v-131zM362 1120v238h193v-238h-193z" />
<glyph unicode="&#xe5;" d="M51 236v120q0 113 69.5 178.5t233.5 124.5v138q0 39 -32.5 39t-32.5 -39v-90h-226v94q0 244 263 243q266 0 266 -251v-793h-139l-31 41q-55 -61 -152 -61q-115 0 -167 62.5t-52 193.5zM164 1260q0 174 166 174q168 0 168 -174q0 -172 -168 -173q-166 1 -166 173zM289 236 q0 -47 32.5 -47.5t32.5 47.5v247q-66 -45 -65 -116v-131zM297 1260q0 -47 33 -48q35 0 35 48q0 49 -35 49q-33 0 -33 -49z" />
<glyph unicode="&#xe6;" horiz-adv-x="960" d="M51 236v120q0 113 69.5 178.5t233.5 124.5v136q0 41 -30 41q-27 0 -27 -41v-54h-234v60q0 244 263 243q90 0 147 -34q57 35 152 34q145 0 204.5 -67.5t59.5 -190.5v-319h-297v-238q0 -41 32.5 -41t32.5 41v123h232v-112q0 -125 -57.5 -192.5t-206.5 -67.5q-92 0 -154 30 q-61 -31 -152 -30q-150 0 -209 65.5t-59 190.5zM289 233q0 -45 35 -45q31 0 30 48v247q-66 -45 -65 -123v-127zM592 645h65v150q0 41 -32.5 41t-32.5 -41v-150z" />
<glyph unicode="&#xe7;" horiz-adv-x="667" d="M72 236v555q0 123 61.5 188t208.5 65q145 0 204.5 -65.5t59.5 -187.5v-127h-231v131q0 41 -33 41t-33 -41v-566q0 -41 33 -41t33 41v152h231v-145q0 -115 -46 -177.5t-165 -74.5l-16 -64q111 -23 110 -127q0 -68 -40.5 -104.5t-147.5 -36.5h-125l33 125h70 q29 0 28.5 28.5t-28.5 28.5h-52l43 152q-111 14 -154.5 77.5t-43.5 172.5z" />
<glyph unicode="&#xe8;" horiz-adv-x="677" d="M72 240v546q0 123 61.5 190.5t208.5 67.5q145 0 204.5 -67.5t59.5 -190.5v-319h-297v-238q0 -41 33 -41t33 41v150h231v-139q0 -125 -57 -192.5t-207 -67.5q-152 0 -211 67.5t-59 192.5zM168 1403h219l41 -277h-139zM309 645h66v150q0 41 -33 41t-33 -41v-150z" />
<glyph unicode="&#xe9;" horiz-adv-x="677" d="M72 240v546q0 123 61.5 190.5t208.5 67.5q145 0 204.5 -67.5t59.5 -190.5v-319h-297v-238q0 -41 33 -41t33 41v150h231v-139q0 -125 -57 -192.5t-207 -67.5q-152 0 -211 67.5t-59 192.5zM260 1126l41 277h219l-121 -277h-139zM309 645h66v150q0 41 -33 41t-33 -41v-150z " />
<glyph unicode="&#xea;" horiz-adv-x="677" d="M72 240v546q0 123 61.5 190.5t208.5 67.5q145 0 204.5 -67.5t59.5 -190.5v-319h-297v-238q0 -41 33 -41t33 41v150h231v-139q0 -125 -57 -192.5t-207 -67.5q-152 0 -211 67.5t-59 192.5zM123 1120l110 277h209l113 -277h-168l-49 101l-49 -101h-166zM309 645h66v150 q0 41 -33 41t-33 -41v-150z" />
<glyph unicode="&#xeb;" horiz-adv-x="677" d="M72 240v546q0 123 61.5 190.5t208.5 67.5q145 0 204.5 -67.5t59.5 -190.5v-319h-297v-238q0 -41 33 -41t33 41v150h231v-139q0 -125 -57 -192.5t-207 -67.5q-152 0 -211 67.5t-59 192.5zM115 1120v238h192v-238h-192zM309 645h66v150q0 41 -33 41t-33 -41v-150zM369 1120 v238h192v-238h-192z" />
<glyph unicode="&#xec;" horiz-adv-x="401" d="M16 1403h220l40 -277h-139zM82 0v1024h237v-1024h-237z" />
<glyph unicode="&#xed;" horiz-adv-x="401" d="M82 0v1024h237v-1024h-237zM125 1126l41 277h219l-121 -277h-139z" />
<glyph unicode="&#xee;" horiz-adv-x="401" d="M-14 1120l110 277h209l113 -277h-168l-49 101l-49 -101h-166zM82 0v1024h237v-1024h-237z" />
<glyph unicode="&#xef;" horiz-adv-x="401" d="M-23 1120v238h193v-238h-193zM82 0v1024h237v-1024h-237zM231 1120v238h193v-238h-193z" />
<glyph unicode="&#xf0;" horiz-adv-x="727" d="M90 248v356q0 254 213 254q47 0 96 -20q-8 125 -43 229l-73 -31l-56 129l74 31q-61 115 -166 238h262q70 -88 107 -148l96 41l57 -129l-88 -39q70 -172 70 -426v-485q0 -268 -274.5 -268t-274.5 268zM328 248q0 -45 36.5 -45t36.5 45v346q0 45 -39 45q-35 0 -34 -45v-346 z" />
<glyph unicode="&#xf1;" horiz-adv-x="694" d="M82 0v1024h139l35 -43q63 63 164 63q113 0 158 -59t45 -192v-793h-238v795q0 41 -33 41t-33 -41v-795h-237zM104 1128q0 121 31 177.5t111 56.5q51 0 104 -32t78 -32q31 0 31 45h141q0 -121 -31.5 -177t-109.5 -56q-55 0 -107.5 32t-75.5 32q-31 0 -30 -46h-142z" />
<glyph unicode="&#xf2;" d="M61 236v555q0 123 61.5 188t209 65t209 -65.5t61.5 -187.5v-555q0 -125 -59.5 -190.5t-211 -65.5t-211 65.5t-59.5 190.5zM201 1403h219l41 -277h-139zM299 229q0 -41 33 -41t33 41v566q0 41 -33 41t-33 -41v-566z" />
<glyph unicode="&#xf3;" d="M61 236v555q0 123 61.5 188t209 65t209 -65.5t61.5 -187.5v-555q0 -125 -59.5 -190.5t-211 -65.5t-211 65.5t-59.5 190.5zM250 1126l41 277h219l-121 -277h-139zM299 229q0 -41 33 -41t33 41v566q0 41 -33 41t-33 -41v-566z" />
<glyph unicode="&#xf4;" d="M61 236v555q0 123 61.5 188t209 65t209 -65.5t61.5 -187.5v-555q0 -125 -59.5 -190.5t-211 -65.5t-211 65.5t-59.5 190.5zM115 1120l110 277h209l113 -277h-168l-49 101l-49 -101h-166zM299 229q0 -41 33 -41t33 41v566q0 41 -33 41t-33 -41v-566z" />
<glyph unicode="&#xf5;" d="M61 236v555q0 123 61.5 188t209 65t209 -65.5t61.5 -187.5v-555q0 -125 -59.5 -190.5t-211 -65.5t-211 65.5t-59.5 190.5zM84 1128q0 121 30.5 177.5t110.5 56.5q51 0 104.5 -32t78.5 -32q31 0 30 45h142q0 -121 -32 -177t-110 -56q-55 0 -107 32t-75 32q-31 0 -31 -46 h-141zM299 229q0 -41 33 -41t33 41v566q0 41 -33 41t-33 -41v-566z" />
<glyph unicode="&#xf6;" d="M61 236v555q0 123 61.5 188t209 65t209 -65.5t61.5 -187.5v-555q0 -125 -59.5 -190.5t-211 -65.5t-211 65.5t-59.5 190.5zM109 1120v238h192v-238h-192zM299 229q0 -41 33 -41t33 41v566q0 41 -33 41t-33 -41v-566zM362 1120v238h193v-238h-193z" />
<glyph unicode="&#xf7;" horiz-adv-x="757" d="M82 481v185h594v-185h-594zM272 199v219h213v-219h-213zM272 729v219h213v-219h-213z" />
<glyph unicode="&#xf8;" d="M61 236v555q0 123 61.5 188t209.5 65q8 0 22.5 -1t20.5 -1l12 43h188l-30 -112q57 -63 57 -182v-555q0 -125 -59.5 -190.5t-210.5 -65.5q-8 0 -23.5 1t-21.5 1l-11 -43h-188l29 110q-56 58 -56 187zM299 229q0 -41 33 -41t33 41v566q0 41 -33 41t-33 -41v-566z" />
<glyph unicode="&#xf9;" horiz-adv-x="704" d="M82 231v793h237v-795q0 -41 33 -41t33 41v795h238v-1024h-140l-30 39q-49 -59 -160 -59q-115 0 -163 59t-48 192zM180 1403h219l41 -277h-139z" />
<glyph unicode="&#xfa;" horiz-adv-x="704" d="M82 231v793h237v-795q0 -41 33 -41t33 41v795h238v-1024h-140l-30 39q-49 -59 -160 -59q-115 0 -163 59t-48 192zM268 1126l41 277h219l-120 -277h-140z" />
<glyph unicode="&#xfb;" horiz-adv-x="704" d="M82 231v793h237v-795q0 -41 33 -41t33 41v795h238v-1024h-140l-30 39q-49 -59 -160 -59q-115 0 -163 59t-48 192zM135 1120l111 277h209l112 -277h-168l-49 101l-49 -101h-166z" />
<glyph unicode="&#xfc;" horiz-adv-x="704" d="M82 231v793h237v-795q0 -41 33 -41t33 41v795h238v-1024h-140l-30 39q-49 -59 -160 -59q-115 0 -163 59t-48 192zM129 1120v238h193v-238h-193zM383 1120v238h192v-238h-192z" />
<glyph unicode="&#xfd;" horiz-adv-x="638" d="M20 1024h248l51 -575h5l47 575h247l-188 -1096q-27 -152 -92.5 -214t-204.5 -62q-63 0 -108 22v211q59 -23 106 -22q53 0 68 67l12 68zM240 1126l41 277h219l-121 -277h-139z" />
<glyph unicode="&#xfe;" horiz-adv-x="694" d="M82 -328v1782h237v-438q57 29 101 28q115 0 159 -57t44 -190v-570q0 -133 -44 -190t-159 -57q-43 0 -101 28v-336h-237zM319 227q0 -39 33 -39t33 43v564q0 41 -33 41t-33 -41v-568z" />
<glyph unicode="&#xff;" horiz-adv-x="638" d="M20 1024h248l51 -575h5l47 575h247l-188 -1096q-27 -152 -92.5 -214t-204.5 -62q-63 0 -108 22v211q59 -23 106 -22q53 0 68 67l12 68zM96 1120v238h193v-238h-193zM350 1120v238h193v-238h-193z" />
<glyph unicode="&#x152;" horiz-adv-x="954" d="M72 256v920q0 279 295 278q74 0 139 -20h377v-238h-221v-354h192v-234h-192v-370h221v-238h-377q-66 -20 -139 -20q-295 0 -295 276zM324 258q0 -51 43 -51t43 51v920q0 49 -43 49t-43 -49v-920z" />
<glyph unicode="&#x153;" horiz-adv-x="960" d="M61 236v555q0 123 61.5 188t209.5 65q94 0 151 -36q59 37 152 36q145 0 204.5 -67.5t59.5 -190.5v-319h-297v-238q0 -41 33 -41t33 41v123h231v-112q0 -125 -57.5 -192.5t-206.5 -67.5q-92 0 -152 32q-59 -33 -151 -32q-152 0 -211.5 65.5t-59.5 190.5zM299 229 q0 -41 33 -41t33 41v566q0 41 -33 41t-33 -41v-566zM602 645h66v150q0 41 -33 41t-33 -41v-150z" />
<glyph unicode="&#x178;" d="M20 1434l187 -928v-506h252v506l184 928h-262l-49 -555l-49 555h-263zM109 1516v237h192v-237h-192zM362 1516v237h193v-237h-193z" />
<glyph unicode="&#x2c6;" horiz-adv-x="595" d="M82 1120l111 277h208l113 -277h-168l-49 101l-49 -101h-166z" />
<glyph unicode="&#x2dc;" horiz-adv-x="671" d="M88 1128q0 121 31 177.5t110 56.5q51 0 104.5 -32t78.5 -32q31 0 30 45h142q0 -121 -32 -177t-110 -56q-55 0 -107 32t-75 32q-31 0 -31 -46h-141z" />
<glyph unicode="&#x2013;" horiz-adv-x="696" d="M72 481v185h553v-185h-553z" />
<glyph unicode="&#x2014;" horiz-adv-x="1024" d="M72 506v135h880v-135h-880z" />
<glyph unicode="&#x2018;" horiz-adv-x="329" d="M41 1454h227v-489h-129z" />
<glyph unicode="&#x2019;" horiz-adv-x="329" d="M61 965v489h228l-99 -489h-129z" />
<glyph unicode="&#x201a;" horiz-adv-x="350" d="M61 -236v490h228l-99 -490h-129z" />
<glyph unicode="&#x201c;" horiz-adv-x="585" d="M41 1454h227v-489h-129zM297 1454h227v-489h-129z" />
<glyph unicode="&#x201d;" horiz-adv-x="585" d="M61 965v489h228l-99 -489h-129zM317 965v489h228l-99 -489h-129z" />
<glyph unicode="&#x201e;" horiz-adv-x="626" d="M82 -238v490h227l-98 -490h-129zM338 -238v490h227l-98 -490h-129z" />
<glyph unicode="&#x2022;" horiz-adv-x="512" d="M82 579.5q0 71.5 51 123t123 51.5t123 -51.5t51 -123t-51 -122.5t-123 -51t-123 51t-51 122.5z" />
<glyph unicode="&#x2026;" horiz-adv-x="1019" d="M82 0v262h237v-262h-237zM389 0v262h238v-262h-238zM700 0v262h238v-262h-238z" />
<glyph unicode="&#x2039;" horiz-adv-x="532" d="M61 512l187 379h223l-180 -379l180 -379h-223z" />
<glyph unicode="&#x203a;" horiz-adv-x="532" d="M61 133l181 379l-181 379h224l186 -379l-186 -379h-224z" />
<glyph unicode="&#x20ac;" horiz-adv-x="794" d="M61 565v111h68v94h-68v111h68v297q0 276 293 276q162 0 226.5 -72.5t64.5 -203.5v-183h-248v183q0 49 -43 49t-43 -49v-297h166l-27 -111h-139v-94h119l-23 -111h-96v-307q0 -51 43 -51t43 51v201h248v-203q0 -131 -64.5 -203.5t-226.5 -72.5q-293 0 -293 276v309h-68z " />
<glyph unicode="&#x2122;" horiz-adv-x="677" d="M61 1370v64h205v-64h-69v-346h-64v346h-72zM322 1024v410h67l70 -220l69 220h68v-410h-61v262l-60 -188h-33l-59 188v-262h-61z" />
<glyph unicode="&#xe000;" horiz-adv-x="1025" d="M0 1025h1025v-1025h-1025v1025z" />
<glyph unicode="&#xfb01;" horiz-adv-x="923" d="M31 817v207h90v186q0 133 61.5 199t214.5 66q55 0 105 -17v-211q-43 18 -96 19q-47 0 -48 -56v-186h125v-207h-125v-817h-237v817h-90zM604 0v1024h238v-1024h-238zM604 1124v262h238v-262h-238z" />
<glyph unicode="&#xfb02;" horiz-adv-x="923" d="M31 817v207h90v186q0 133 61.5 199t214.5 66q55 0 105 -17v-211q-43 18 -96 19q-47 0 -48 -56v-186h125v-207h-125v-817h-237v817h-90zM604 0v1454h238v-1454h-238z" />
<glyph unicode="&#xfb03;" horiz-adv-x="1445" d="M31 817v207h90v186q0 133 61.5 199t214.5 66q55 0 105 -17v-211q-43 18 -96 19q-47 0 -48 -56v-186h125v-207h-125v-817h-237v817h-90zM553 817v207h90v186q0 133 61.5 199t215.5 66q55 0 104 -17v-211q-43 18 -96 19q-47 0 -47 -56v-186h125v-207h-125v-817h-238v817 h-90zM1126 0v1024h238v-1024h-238zM1126 1124v262h238v-262h-238z" />
<glyph unicode="&#xfb04;" horiz-adv-x="1445" d="M31 817v207h90v186q0 133 61.5 199t214.5 66q55 0 105 -17v-211q-43 18 -96 19q-47 0 -48 -56v-186h125v-207h-125v-817h-237v817h-90zM553 817v207h90v186q0 133 61.5 199t215.5 66q55 0 104 -17v-211q-43 18 -96 19q-47 0 -47 -56v-186h125v-207h-125v-817h-238v817 h-90zM1126 0v1454h238v-1454h-238z" />
<glyph horiz-adv-x="0" />
</font>
</defs>
</svg>
