<?xml version="1.0" encoding="utf-8"?>
<!-- Generated by IcoMoon.io -->
<!DOCTYPE svg PUBLIC "-//W3C//DTD SVG 1.1//EN" "http://www.w3.org/Graphics/SVG/1.1/DTD/svg11.dtd">
<svg version="1.1" xmlns="http://www.w3.org/2000/svg" xmlns:xlink="http://www.w3.org/1999/xlink" width="34" height="32" viewBox="0 0 34 32">
<path d="M17.069 32l-0.371-0.531c-2.553-3.665-5.622-6.356-8.327-8.727-4.487-3.935-8.371-7.331-8.371-13.578 0-5.055 4.109-9.164 9.164-9.164 3.251 0 6.262 1.753 7.891 4.531 0.72-1.229 1.724-2.276 2.924-3.062 1.484-0.96 3.207-1.469 4.975-1.469 5.055 0 9.164 4.109 9.164 9.164 0 5.956-3.855 9.367-8.313 13.324-2.771 2.458-5.905 5.236-8.378 8.975l-0.356 0.538zM9.164 0.873c-4.575 0-8.291 3.716-8.291 8.291 0 2.676 0.749 4.953 2.356 7.171 1.469 2.029 3.535 3.84 5.724 5.753 2.618 2.291 5.571 4.88 8.102 8.371 2.473-3.571 5.491-6.247 8.175-8.625 4.298-3.811 8.015-7.105 8.015-12.669 0-4.575-3.716-8.291-8.291-8.291-3.193 0-6.138 1.876-7.505 4.785l-0.393 0.844-0.393-0.844c-1.36-2.909-4.305-4.785-7.498-4.785v0z"></path>
</svg>
