<?xml version="1.0" encoding="utf-8"?>
<!-- Generated by IcoMoon.io -->
<!DOCTYPE svg PUBLIC "-//W3C//DTD SVG 1.1//EN" "http://www.w3.org/Graphics/SVG/1.1/DTD/svg11.dtd">
<svg version="1.1" xmlns="http://www.w3.org/2000/svg" xmlns:xlink="http://www.w3.org/1999/xlink" width="35" height="32" viewBox="0 0 35 32">
<path fill="#cc0c2f" d="M35.417 10.030c-1.094-7.931-7.254-10.002-10.473-10.002h-0.012c-3.28-0.279-5.72 1.722-7.194 3.163-1.464-1.425-3.866-3.446-7.194-3.165h-0.012c-3.219 0-9.378 2.071-10.473 10.002-0.069 0.494-0.556 4.897 2.933 10.335 3.591 5.598 11.619 10.318 13.981 11.314l0.765 0.323 0.765-0.323c2.363-0.997 10.391-5.717 13.98-11.312 3.489-5.438 3.002-9.84 2.933-10.335zM28.572 18.271c-2.487 3.873-8.203 7.632-10.887 8.992-2.683-1.359-8.399-5.118-10.887-8.994-2.633-4.101-2.235-7.303-2.235-7.303 0.843-6.103 6.529-6.292 6.529-6.292 3.049-0.26 4.94 2.109 5.186 2.439l0.569 0.744 0.882 1.185 0.816-1.137 0.603-0.764c0.158-0.197 1.925-2.653 5.143-2.491 0 0 5.881 0 6.52 6.337 0.013 0.128 0.396 3.183-2.238 7.284z"></path>
</svg>
