<?xml version="1.0" encoding="utf-8"?>
<!-- Generated by IcoMoon.io -->
<!DOCTYPE svg PUBLIC "-//W3C//DTD SVG 1.1//EN" "http://www.w3.org/Graphics/SVG/1.1/DTD/svg11.dtd">
<svg version="1.1" xmlns="http://www.w3.org/2000/svg" xmlns:xlink="http://www.w3.org/1999/xlink" width="32" height="32" viewBox="0 0 32 32">
<path d="M16 3.094c4.206 0 4.7 0.019 6.363 0.094 1.538 0.069 2.369 0.325 2.925 0.544 0.738 0.287 1.262 0.625 1.813 1.175s0.894 1.075 1.175 1.813c0.212 0.556 0.475 1.387 0.544 2.925 0.075 1.662 0.094 2.156 0.094 6.363s-0.019 4.7-0.094 6.363c-0.069 1.538-0.325 2.369-0.544 2.925-0.288 0.738-0.625 1.262-1.175 1.813s-1.075 0.894-1.813 1.175c-0.556 0.212-1.387 0.475-2.925 0.544-1.663 0.075-2.156 0.094-6.363 0.094s-4.7-0.019-6.363-0.094c-1.537-0.069-2.369-0.325-2.925-0.544-0.737-0.288-1.263-0.625-1.813-1.175s-0.894-1.075-1.175-1.813c-0.212-0.556-0.475-1.387-0.544-2.925-0.075-1.663-0.094-2.156-0.094-6.363s0.019-4.7 0.094-6.363c0.069-1.537 0.325-2.369 0.544-2.925 0.287-0.737 0.625-1.263 1.175-1.813s1.075-0.894 1.813-1.175c0.556-0.212 1.388-0.475 2.925-0.544 1.662-0.081 2.156-0.094 6.363-0.094zM16 0.256c-4.275 0-4.813 0.019-6.494 0.094-1.675 0.075-2.819 0.344-3.819 0.731-1.037 0.4-1.913 0.944-2.788 1.819s-1.413 1.756-1.819 2.788c-0.387 1-0.656 2.144-0.731 3.825-0.075 1.675-0.094 2.213-0.094 6.488s0.019 4.813 0.094 6.494c0.075 1.675 0.344 2.819 0.731 3.825 0.4 1.038 0.944 1.913 1.819 2.788s1.756 1.413 2.788 1.819c1 0.387 2.144 0.656 3.825 0.731s2.213 0.094 6.494 0.094 4.813-0.019 6.494-0.094c1.675-0.075 2.819-0.344 3.825-0.731 1.038-0.4 1.913-0.944 2.788-1.819s1.413-1.756 1.819-2.788c0.387-1 0.656-2.144 0.731-3.825s0.094-2.212 0.094-6.494-0.019-4.813-0.094-6.494c-0.075-1.675-0.344-2.819-0.731-3.825-0.4-1.038-0.944-1.913-1.819-2.788s-1.756-1.413-2.788-1.819c-1-0.387-2.144-0.656-3.825-0.731-1.688-0.069-2.225-0.088-6.5-0.088v0z"></path>
<path d="M16 7.912c-4.463 0-8.088 3.619-8.088 8.088s3.625 8.087 8.088 8.087 8.087-3.625 8.087-8.088-3.625-8.088-8.088-8.088zM16 21.25c-2.9 0-5.25-2.35-5.25-5.25s2.35-5.25 5.25-5.25 5.25 2.35 5.25 5.25-2.35 5.25-5.25 5.25z"></path>
<path d="M26.294 7.594c0 1.042-0.845 1.887-1.887 1.887s-1.887-0.845-1.887-1.888c0-1.042 0.845-1.888 1.887-1.888s1.887 0.845 1.887 1.888z"></path>
</svg>
