<svg style="position: absolute; width: 0; height: 0; overflow: hidden;" version="1.1" xmlns="http://www.w3.org/2000/svg" xmlns:xlink="http://www.w3.org/1999/xlink">
<defs>
<symbol id="icon-hotspot-plus" viewBox="0 0 32 32">
<title>hotspot-plus</title>
<path fill="#fff" style="fill: var(--color1, #fff)" d="M12.8 0h6.5v32h-6.5v-32z"></path>
<path fill="#fff" style="fill: var(--color1, #fff)" d="M0 19.2v-6.5h32v6.5h-32z"></path>
</symbol>
<symbol id="icon-hotspot-plus-hover" viewBox="0 0 32 32">
<title>hotspot-plus-hover</title>
<path fill="#012c5c" style="fill: var(--color1, #012c5c)" d="M12.8 0h6.5v32h-6.5v-32z"></path>
<path fill="#012c5c" style="fill: var(--color1, #012c5c)" d="M0 19.2v-6.5h32v6.5h-32z"></path>
</symbol>
<symbol id="icon-arrow-left" viewBox="0 0 15 32">
<title>arrow-left</title>
<path d="M13.424 32l-13.424-15.665 13.405-16.335 1.494 1.226-12.409 15.071 12.39 14.439-1.455 1.264z"></path>
</symbol>
<symbol id="icon-arrow-right" viewBox="0 0 15 32">
<title>arrow-right</title>
<path d="M1.455 0l13.443 15.665-13.424 16.335-1.475-1.226 12.39-15.090-12.39-14.439 1.455-1.245z"></path>
</symbol>
<symbol id="icon-checked" viewBox="0 0 31 32">
<title>checked</title>
<path d="M13.9 32l-13.9-15.9 2.9-2.5 10.3 11.8 14.7-25.4 3.3 1.9z"></path>
</symbol>
<symbol id="icon-close" viewBox="0 0 33 32">
<title>close</title>
<path fill="#1f2451" style="fill: var(--color2, #1f2451)" d="M2.043 0.247l30.458 29.372-2.041 2.116-30.458-29.372 2.041-2.116z"></path>
<path fill="#1f2451" style="fill: var(--color2, #1f2451)" d="M32.251 2.079l-29.92 29.92-2.079-2.079 29.92-29.92 2.079 2.079z"></path>
</symbol>
<symbol id="icon-cross" viewBox="0 0 32 32">
<title>cross</title>
<path d="M29.908 3.815l-1.723-1.723-12.185 12.185-12.185-12.185-1.723 1.723 12.185 12.185-12.185 12.185 1.723 1.723 12.185-12.185 12.185 12.185 1.723-1.723-12.185-12.185z"></path>
</symbol>
<symbol id="icon-heart-filled" viewBox="0 0 34 32">
<title>heart-filled</title>
<path d="M17.069 32l-0.371-0.531c-2.553-3.665-5.622-6.356-8.327-8.727-4.487-3.935-8.371-7.331-8.371-13.578 0-5.055 4.109-9.164 9.164-9.164 3.251 0 6.262 1.753 7.891 4.531 0.72-1.229 1.724-2.276 2.924-3.062 1.484-0.96 3.207-1.469 4.975-1.469 5.055 0 9.164 4.109 9.164 9.164 0 5.956-3.855 9.367-8.313 13.324-2.771 2.458-5.905 5.236-8.378 8.975l-0.356 0.538zM9.164 0.873c-4.575 0-8.291 3.716-8.291 8.291 0 2.676 0.749 4.953 2.356 7.171 1.469 2.029 3.535 3.84 5.724 5.753 2.618 2.291 5.571 4.88 8.102 8.371 2.473-3.571 5.491-6.247 8.175-8.625 4.298-3.811 8.015-7.105 8.015-12.669 0-4.575-3.716-8.291-8.291-8.291-3.193 0-6.138 1.876-7.505 4.785l-0.393 0.844-0.393-0.844c-1.36-2.909-4.305-4.785-7.498-4.785v0z"></path>
<path d="M9.164 0.873c-4.575 0-8.291 3.716-8.291 8.291 0 2.676 0.749 4.953 2.356 7.171 1.469 2.029 3.535 3.84 5.724 5.753 2.618 2.291 5.571 4.88 8.102 8.371 2.473-3.571 5.491-6.247 8.175-8.625 4.298-3.811 8.015-7.105 8.015-12.669 0-4.575-3.716-8.291-8.291-8.291-3.193 0-6.138 1.876-7.505 4.785l-0.393 0.844-0.393-0.844c-1.36-2.909-4.305-4.785-7.498-4.785v0z"></path>
</symbol>
<symbol id="icon-heart-outline" viewBox="0 0 34 32">
<title>heart-outline</title>
<path d="M17.069 32l-0.371-0.531c-2.553-3.665-5.622-6.356-8.327-8.727-4.487-3.935-8.371-7.331-8.371-13.578 0-5.055 4.109-9.164 9.164-9.164 3.251 0 6.262 1.753 7.891 4.531 0.72-1.229 1.724-2.276 2.924-3.062 1.484-0.96 3.207-1.469 4.975-1.469 5.055 0 9.164 4.109 9.164 9.164 0 5.956-3.855 9.367-8.313 13.324-2.771 2.458-5.905 5.236-8.378 8.975l-0.356 0.538zM9.164 0.873c-4.575 0-8.291 3.716-8.291 8.291 0 2.676 0.749 4.953 2.356 7.171 1.469 2.029 3.535 3.84 5.724 5.753 2.618 2.291 5.571 4.88 8.102 8.371 2.473-3.571 5.491-6.247 8.175-8.625 4.298-3.811 8.015-7.105 8.015-12.669 0-4.575-3.716-8.291-8.291-8.291-3.193 0-6.138 1.876-7.505 4.785l-0.393 0.844-0.393-0.844c-1.36-2.909-4.305-4.785-7.498-4.785v0z"></path>
</symbol>
<symbol id="icon-heart" viewBox="0 0 35 32">
<title>heart</title>
<path fill="#cc0c2f" style="fill: var(--color3, #cc0c2f)" d="M35.417 10.030c-1.094-7.931-7.254-10.002-10.473-10.002h-0.012c-3.28-0.279-5.72 1.722-7.194 3.163-1.464-1.425-3.866-3.446-7.194-3.165h-0.012c-3.219 0-9.378 2.071-10.473 10.002-0.069 0.494-0.556 4.897 2.933 10.335 3.591 5.598 11.619 10.318 13.981 11.314l0.765 0.323 0.765-0.323c2.363-0.997 10.391-5.717 13.98-11.312 3.489-5.438 3.002-9.84 2.933-10.335zM28.572 18.271c-2.487 3.873-8.203 7.632-10.887 8.992-2.683-1.359-8.399-5.118-10.887-8.994-2.633-4.101-2.235-7.303-2.235-7.303 0.843-6.103 6.529-6.292 6.529-6.292 3.049-0.26 4.94 2.109 5.186 2.439l0.569 0.744 0.882 1.185 0.816-1.137 0.603-0.764c0.158-0.197 1.925-2.653 5.143-2.491 0 0 5.881 0 6.52 6.337 0.013 0.128 0.396 3.183-2.238 7.284z"></path>
</symbol>
<symbol id="icon-instagram" viewBox="0 0 32 32">
<title>instagram</title>
<path d="M16 3.094c4.206 0 4.7 0.019 6.363 0.094 1.538 0.069 2.369 0.325 2.925 0.544 0.738 0.287 1.262 0.625 1.813 1.175s0.894 1.075 1.175 1.813c0.212 0.556 0.475 1.387 0.544 2.925 0.075 1.662 0.094 2.156 0.094 6.363s-0.019 4.7-0.094 6.363c-0.069 1.538-0.325 2.369-0.544 2.925-0.288 0.738-0.625 1.262-1.175 1.813s-1.075 0.894-1.813 1.175c-0.556 0.212-1.387 0.475-2.925 0.544-1.663 0.075-2.156 0.094-6.363 0.094s-4.7-0.019-6.363-0.094c-1.537-0.069-2.369-0.325-2.925-0.544-0.737-0.288-1.263-0.625-1.813-1.175s-0.894-1.075-1.175-1.813c-0.212-0.556-0.475-1.387-0.544-2.925-0.075-1.663-0.094-2.156-0.094-6.363s0.019-4.7 0.094-6.363c0.069-1.537 0.325-2.369 0.544-2.925 0.287-0.737 0.625-1.263 1.175-1.813s1.075-0.894 1.813-1.175c0.556-0.212 1.388-0.475 2.925-0.544 1.662-0.081 2.156-0.094 6.363-0.094zM16 0.256c-4.275 0-4.813 0.019-6.494 0.094-1.675 0.075-2.819 0.344-3.819 0.731-1.037 0.4-1.913 0.944-2.788 1.819s-1.413 1.756-1.819 2.788c-0.387 1-0.656 2.144-0.731 3.825-0.075 1.675-0.094 2.213-0.094 6.488s0.019 4.813 0.094 6.494c0.075 1.675 0.344 2.819 0.731 3.825 0.4 1.038 0.944 1.913 1.819 2.788s1.756 1.413 2.788 1.819c1 0.387 2.144 0.656 3.825 0.731s2.213 0.094 6.494 0.094 4.813-0.019 6.494-0.094c1.675-0.075 2.819-0.344 3.825-0.731 1.038-0.4 1.913-0.944 2.788-1.819s1.413-1.756 1.819-2.788c0.387-1 0.656-2.144 0.731-3.825s0.094-2.212 0.094-6.494-0.019-4.813-0.094-6.494c-0.075-1.675-0.344-2.819-0.731-3.825-0.4-1.038-0.944-1.913-1.819-2.788s-1.756-1.413-2.788-1.819c-1-0.387-2.144-0.656-3.825-0.731-1.688-0.069-2.225-0.088-6.5-0.088v0z"></path>
<path d="M16 7.912c-4.463 0-8.088 3.619-8.088 8.088s3.625 8.087 8.088 8.087 8.087-3.625 8.087-8.088-3.625-8.088-8.088-8.088zM16 21.25c-2.9 0-5.25-2.35-5.25-5.25s2.35-5.25 5.25-5.25 5.25 2.35 5.25 5.25-2.35 5.25-5.25 5.25z"></path>
<path d="M26.294 7.594c0 1.042-0.845 1.887-1.887 1.887s-1.887-0.845-1.887-1.888c0-1.042 0.845-1.888 1.887-1.888s1.887 0.845 1.887 1.888z"></path>
</symbol>
<symbol id="icon-pause-button-icon" viewBox="0 0 22 32">
<title>pause-button-icon</title>
<path fill="#fff" style="fill: var(--color1, #fff)" d="M0 0h6.7v32h-6.7v-32z"></path>
<path fill="#fff" style="fill: var(--color1, #fff)" d="M15.3 0h6.7v32h-6.7v-32z"></path>
</symbol>
<symbol id="icon-play-button-icon" viewBox="0 0 27 32">
<title>play-button-icon</title>
<path fill="#fff" style="fill: var(--color1, #fff)" d="M0 30.234v-28.415c-0.024-0.108-0.038-0.232-0.038-0.359 0-0.946 0.767-1.712 1.712-1.712 0.331 0 0.64 0.094 0.902 0.256l23.324 14.444c0.525 0.325 0.87 0.898 0.87 1.552s-0.345 1.227-0.862 1.547l-23.392 14.185c-0.245 0.15-0.541 0.239-0.858 0.239-0.916 0-1.659-0.743-1.659-1.659 0-0.028 0.001-0.055 0.002-0.082z"></path>
</symbol>
<symbol id="icon-play" viewBox="0 0 32 32">
<title>play</title>
<path d="M6 4l20 12-20 12z"></path>
</symbol>
<symbol id="icon-twitter" viewBox="0 0 32 32">
<title>twitter</title>
<path d="M32 6.076c-1.177 0.522-2.443 0.875-3.771 1.034 1.355-0.813 2.396-2.099 2.887-3.632-1.269 0.752-2.674 1.299-4.169 1.593-1.198-1.276-2.904-2.073-4.792-2.073-3.626 0-6.565 2.939-6.565 6.565 0 0.515 0.058 1.016 0.17 1.496-5.456-0.274-10.294-2.888-13.532-6.86-0.565 0.97-0.889 2.097-0.889 3.301 0 2.278 1.159 4.287 2.921 5.465-1.076-0.034-2.088-0.329-2.974-0.821-0.001 0.027-0.001 0.055-0.001 0.083 0 3.181 2.263 5.834 5.266 6.437-0.551 0.15-1.131 0.23-1.73 0.23-0.423 0-0.834-0.041-1.235-0.118 0.835 2.608 3.26 4.506 6.133 4.559-2.247 1.761-5.078 2.81-8.154 2.81-0.53 0-1.052-0.031-1.566-0.092 2.905 1.863 6.356 2.95 10.064 2.95 12.076 0 18.679-10.004 18.679-18.68 0-0.285-0.006-0.568-0.019-0.849 1.283-0.926 2.396-2.082 3.276-3.398z"></path>
</symbol>
</defs>
</svg>
